<svg width="167" height="40" viewBox="0 0 167 40" fill="none" xmlns="http://www.w3.org/2000/svg">
<path d="M54.6602 27.9319C54.6602 35.101 59.3247 39.4208 66.9074 39.4208C70.0094 39.4208 72.6978 38.7085 74.3752 37.5137C75.7769 36.6405 76.5811 35.4916 76.5811 34.1819C76.5811 32.6194 75.5931 31.6543 74.0995 31.6543C72.9506 31.6543 72.4681 32.0909 71.3421 32.8032C70.4 33.4925 69.2052 33.8832 67.4359 33.8832C64.15 33.8832 62.2199 31.93 62.1739 29.0348V28.1387H73.6399C76.2824 28.1387 77.2705 27.1276 77.2705 24.3243C77.2705 18.2352 72.6749 13.6855 66.1721 13.6855C59.2557 13.6855 54.6602 18.2811 54.6602 25.2205V27.9319ZM62.1739 23.9107V23.8418C62.1739 21.0844 63.7364 19.2003 66.333 19.2003C68.7456 19.2003 70.3081 21.0385 70.3081 23.8418V23.9107H62.1739Z" fill="#FFA800"/>
<path d="M32.1875 33.9521C32.1875 35.5605 33.2445 36.9622 35.1746 37.9503C37.0129 38.8923 39.4945 39.4208 42.2748 39.4208C49.0993 39.4208 53.1434 36.3188 53.1434 31.2866C53.1434 27.5183 51.0524 25.2434 46.6176 24.3243L42.2978 23.4512C40.3906 23.0376 39.5634 22.3712 39.5634 21.1993C39.5634 19.8436 40.7123 18.8786 42.6425 18.8786C43.9062 18.8786 45.0551 19.2232 46.8934 20.3032C48.1342 20.9925 48.9154 21.2223 49.6507 21.2223C51.2362 21.2223 52.3392 20.3032 52.3392 18.7866C52.3392 17.2471 51.2362 15.8914 49.2601 14.9723C47.5138 14.1221 45.3309 13.6855 43.0331 13.6855C36.6452 13.6855 32.5092 16.8565 32.5092 21.6359C32.5092 25.3813 34.6691 27.6561 39.4026 28.6442L42.8263 29.3795C45.0781 29.885 46.0892 30.7352 46.0892 31.953C46.0892 33.3317 44.8024 34.1589 42.6884 34.1589C40.9881 34.1589 39.5634 33.6534 37.6103 32.4355C36.3925 31.7003 35.7261 31.4015 34.8759 31.4015C33.2675 31.4015 32.1875 32.4355 32.1875 33.9521Z" fill="#D8503F"/>
<path d="M110.892 35.0093V25.5883C110.892 22.0727 112.523 20.2574 115.855 20.1425C116.958 20.0966 117.808 19.8438 118.359 19.3843C118.957 18.8788 119.256 18.1435 119.256 17.1324C119.256 16.0984 118.934 15.2942 118.336 14.7427C117.762 14.1913 116.958 13.9155 115.947 13.9155C113.58 13.9155 111.834 15.3172 111.006 17.8448H110.662V17.5001C110.501 15.2712 109.283 14.0764 107.146 14.0764C104.779 14.0764 103.516 15.524 103.516 18.1205V35.0093C103.516 37.5828 104.71 39.0534 107.123 39.0534C109.513 39.0534 110.892 37.5828 110.892 35.0093Z" fill="#28B42F"/>
<path d="M93.0147 35.8135H93.3594V36.296C93.6581 38.0653 94.9448 39.0534 96.829 39.0534C99.1268 39.0534 100.414 37.6747 100.414 35.1471V22.6012C100.414 17.0635 96.5763 13.9155 89.8208 13.9155C86.9715 13.9155 84.7886 14.3981 83.1572 15.1793C80.8824 16.2593 79.8713 17.7528 79.8713 19.2464C79.8713 20.671 80.8364 21.728 82.4219 21.728C83.5708 21.728 84.329 21.4523 85.0873 20.9698C86.3971 20.0277 87.6379 19.3383 89.3382 19.3383C91.682 19.3383 93.0377 20.4413 93.0377 22.5093V24.2786H87.6149C81.9393 24.3016 78.5156 27.1049 78.5156 31.6775C78.5156 36.1122 81.7555 39.0993 86.5579 39.0993C89.4761 39.0993 91.8658 37.8815 93.0147 35.8135ZM85.7767 31.149C85.7767 29.4256 87.1094 28.3687 89.2693 28.3687H93.0377V30.7584C93.0377 32.6196 91.3373 34.0672 89.1774 34.0672C87.1783 34.0672 85.7767 32.8723 85.7767 31.149Z" fill="#1973E8"/>
<path d="M166.412 35.0094V22.6243C166.412 17.1326 163.425 13.9157 158.324 13.9157C154.946 13.9157 152.028 15.7999 151.201 18.5342H150.833V9.66475C150.833 7.04527 149.523 5.59766 147.156 5.59766C144.79 5.59766 143.457 7.04527 143.457 9.66475V35.0094C143.457 37.6059 144.767 39.0535 147.156 39.0535C149.5 39.0535 150.833 37.6059 150.833 35.0094V25.2438C150.833 22.0728 152.556 20.0278 155.153 20.0278C157.611 20.0278 159.036 21.6822 159.036 24.5545V35.0094C159.036 37.6059 160.346 39.0535 162.736 39.0535C165.102 39.0535 166.412 37.6059 166.412 35.0094Z" fill="#1973E8"/>
<path d="M119.305 27.8404C119.305 35.2623 123.716 39.4213 130.886 39.4213C133.551 39.4213 135.964 38.8009 137.802 37.652C139.571 36.5491 140.697 34.9866 140.697 33.4471C140.697 31.7467 139.617 30.6438 137.94 30.6438C136.722 30.6438 136.033 31.2871 135.343 31.8386C134.263 32.8956 133.045 33.539 131.437 33.539C128.059 33.539 126.91 31.1033 126.91 27.4728V25.3129C126.91 21.8662 128.358 19.5684 131.368 19.5684C132.954 19.5684 134.102 20.1888 135.068 21.1768C135.78 21.7743 136.515 22.4406 137.756 22.4406C139.479 22.4406 140.628 21.1768 140.628 19.5454C140.628 18.0518 139.571 16.6502 138.124 15.6621C136.262 14.3754 133.643 13.686 130.886 13.686C123.464 13.686 119.305 18.2816 119.305 24.9222V27.8404Z" fill="#D8503F"/>
<path fill-rule="evenodd" clip-rule="evenodd" d="M0.0296979 16.7622C0.0296979 5.0275 4.16804 0.88916 15.9027 0.88916H19.4503C21.5556 0.88916 22.2519 1.69903 22.2519 3.69074V6.02409C22.2519 8.0158 21.4421 8.82567 19.4503 8.82567H15.9027C9.74173 8.82567 7.96621 10.6012 7.96621 16.7622V36.1828C7.96621 38.2225 7.14063 38.9844 5.16463 38.9844H2.83128C0.839562 38.9844 -0.192353 38.0003 0.0296979 36.1828V16.7622Z" fill="#1973E8"/>
<path d="M2.78125 20.3558C2.78125 18.8085 4.03556 17.5542 5.58283 17.5542H16.6463C18.638 17.5542 19.4479 18.3641 19.4479 20.3558V21.4987C19.4479 23.4904 18.638 24.3002 16.6463 24.3002H5.58282C4.03556 24.3002 2.78125 23.0459 2.78125 21.4987V20.3558Z" fill="#1973E8"/>
</svg>
