<svg t="1641517095045" class="icon" viewBox="0 0 1024 1024" version="1.1" xmlns="http://www.w3.org/2000/svg" p-id="1143" width="200" height="200"><path d="M293.5 463.9H767c44.2 0 61.4 106 61.6 224 0.2 118-44.3 224-79.6 224H640.9c-4.1 0-6.9-4.1-5.4-7.9 5.1-13 13.7-39.6 9.9-63-5.3-32.4-16.5-58.8-16.5-58.8s8.3 23.9-25.8 68.7c-31.2 41-58.9 55.7-68.1 59.7-1.9 0.8-3.9 1.3-6 1.3H184.2c-24.3 0-44-20.2-43-44.8 0.3-7.4 2.6-14.7 6.5-21l48.7-81.2c35.5-59.1 54.2-126.8 54.2-195.7V507c-0.1-23.8 19.2-43.1 42.9-43.1z m213.7-158.1V155.1c0-23.8 19.3-43.1 43.1-43.1s43.1 19.3 43.1 43.1v150.7h160.8c23.8 0 43.1 19.3 43.1 43.1V392c0 23.8-19.3 43.1-43.1 43.1H323.5c-23.8 0-43.1-19.3-43.1-43.1v-43.1c0-23.8 19.3-43.1 43.1-43.1h183.7z" p-id="1144" fill="#8a8a8a"></path></svg>